<svg width="100" height="91" viewBox="0 0 100 91" fill="none" xmlns="http://www.w3.org/2000/svg">
<mask id="path-1-inside-1_23_23" fill="white">
<path fill-rule="evenodd" clip-rule="evenodd" d="M90.7969 51.6216L52.8138 89.215C51.2551 90.7578 48.7449 90.7578 47.1862 89.215L9.20318 51.6216C8.99772 51.424 8.79508 51.2234 8.59531 51.02L8.41646 50.843C8.32995 50.7573 8.24845 50.6696 8.17186 50.58C3.10544 45.2083 0 37.9668 0 30C0 13.4315 13.4315 0 30 0C37.6835 0 44.6924 2.88854 50 7.63894C55.3076 2.88854 62.3165 0 70 0C86.5685 0 100 13.4315 100 30C100 37.9668 96.8946 45.2083 91.8281 50.58C91.7515 50.6696 91.6701 50.7573 91.5835 50.843L91.4046 51.0201C91.2049 51.2234 91.0023 51.4239 90.7969 51.6216Z"/>
</mask>
<path d="M90.7969 51.6216L86.637 47.2977L86.6064 47.3272L86.5762 47.3571L90.7969 51.6216ZM52.8138 89.215L57.0345 93.4795L52.8138 89.215ZM47.1862 89.215L51.4069 84.9506L51.4069 84.9506L47.1862 89.215ZM9.20318 51.6216L13.4239 47.3572L13.3937 47.3273L13.3631 47.2978L9.20318 51.6216ZM8.59531 51.02L12.876 46.8157L12.8462 46.7854L12.816 46.7555L8.59531 51.02ZM8.41646 50.843L4.19574 55.1074L4.19575 55.1074L8.41646 50.843ZM8.17186 50.58L12.7326 46.6813L12.6373 46.5699L12.5367 46.4632L8.17186 50.58ZM50 7.63894L45.9985 12.1097L50 15.6912L54.0015 12.1097L50 7.63894ZM91.8281 50.58L87.4633 46.4632L87.3627 46.5698L87.2675 46.6812L91.8281 50.58ZM91.5835 50.843L87.3629 46.5785L87.3628 46.5785L91.5835 50.843ZM91.4046 51.0201L87.1839 46.7556L87.1537 46.7855L87.1239 46.8158L91.4046 51.0201ZM86.5762 47.3571L48.5931 84.9506L57.0345 93.4795L95.0176 55.886L86.5762 47.3571ZM48.5931 84.9506C49.3724 84.1793 50.6275 84.1792 51.4069 84.9506L42.9655 93.4795C46.8622 97.3363 53.1378 97.3362 57.0345 93.4795L48.5931 84.9506ZM51.4069 84.9506L13.4239 47.3572L4.98246 55.8861L42.9655 93.4795L51.4069 84.9506ZM13.3631 47.2978C13.1984 47.1394 13.0361 46.9787 12.876 46.8157L4.31462 55.2242C4.55409 55.468 4.797 55.7085 5.04328 55.9454L13.3631 47.2978ZM12.816 46.7555L12.6372 46.5785L4.19575 55.1074L4.3746 55.2844L12.816 46.7555ZM12.6372 46.5785C12.6681 46.6091 12.7001 46.6433 12.7326 46.6813L3.61116 54.4787C3.79684 54.6959 3.99185 54.9056 4.19574 55.1074L12.6372 46.5785ZM12.5367 46.4632C8.47863 42.1606 6 36.3763 6 30H-6C-6 39.5573 -2.26775 48.256 3.807 54.6968L12.5367 46.4632ZM6 30C6 16.7452 16.7452 6 30 6V-6C10.1177 -6 -6 10.1177 -6 30H6ZM30 6C36.1507 6 41.7485 8.30586 45.9985 12.1097L54.0015 3.16813C47.6364 -2.52879 39.2164 -6 30 -6V6ZM54.0015 12.1097C58.2515 8.30586 63.8493 6 70 6V-6C60.7836 -6 52.3636 -2.52879 45.9985 3.16813L54.0015 12.1097ZM70 6C83.2548 6 94 16.7452 94 30H106C106 10.1177 89.8823 -6 70 -6V6ZM94 30C94 36.3763 91.5214 42.1606 87.4633 46.4632L96.193 54.6968C102.268 48.256 106 39.5573 106 30H94ZM87.2675 46.6812C87.2998 46.6435 87.3318 46.6092 87.3629 46.5785L95.8042 55.1075C96.0084 54.9054 96.2033 54.6957 96.3888 54.4788L87.2675 46.6812ZM87.3628 46.5785L87.1839 46.7556L95.6253 55.2845L95.8043 55.1074L87.3628 46.5785ZM87.1239 46.8158C86.9639 46.9788 86.8016 47.1394 86.637 47.2977L94.9568 55.9454C95.203 55.7084 95.4459 55.468 95.6854 55.2243L87.1239 46.8158Z" fill="black" mask="url(#path-1-inside-1_23_23)"/>
</svg>
