<svg width="80" height="84" viewBox="0 0 80 84" fill="none" xmlns="http://www.w3.org/2000/svg">
<mask id="path-1-inside-1_1_163" fill="white">
<path fill-rule="evenodd" clip-rule="evenodd" d="M40 40C50.4934 40 59 31.0457 59 20C59 8.9543 50.4934 0 40 0C29.5066 0 21 8.9543 21 20C21 31.0457 29.5066 40 40 40ZM0 65C0 75.4934 17.9086 84 40 84C62.0914 84 80 75.4934 80 65C80 54.5066 62.0914 46 40 46C17.9086 46 0 54.5066 0 65Z"/>
</mask>
<path fill-rule="evenodd" clip-rule="evenodd" d="M40 40C50.4934 40 59 31.0457 59 20C59 8.9543 50.4934 0 40 0C29.5066 0 21 8.9543 21 20C21 31.0457 29.5066 40 40 40ZM0 65C0 75.4934 17.9086 84 40 84C62.0914 84 80 75.4934 80 65C80 54.5066 62.0914 46 40 46C17.9086 46 0 54.5066 0 65Z" fill="black"/>
<path d="M56 20C56 29.5357 48.6934 37 40 37V43C52.2934 43 62 32.5557 62 20H56ZM40 3C48.6934 3 56 10.4643 56 20H62C62 7.44431 52.2934 -3 40 -3V3ZM24 20C24 10.4643 31.3066 3 40 3V-3C27.7066 -3 18 7.44431 18 20H24ZM40 37C31.3066 37 24 29.5357 24 20H18C18 32.5557 27.7066 43 40 43V37ZM40 81C29.2984 81 19.7569 78.9334 13.0029 75.7252C6.02273 72.4096 3 68.4169 3 65H-3C-3 72.0765 2.93157 77.5838 10.4286 81.1449C18.1517 84.8133 28.6102 87 40 87V81ZM77 65C77 68.4169 73.9773 72.4096 66.9971 75.7252C60.2431 78.9334 50.7016 81 40 81V87C51.3898 87 61.8483 84.8133 69.5714 81.1449C77.0684 77.5838 83 72.0765 83 65H77ZM40 49C50.7016 49 60.2431 51.0666 66.9971 54.2748C73.9773 57.5904 77 61.5831 77 65H83C83 57.9235 77.0684 52.4162 69.5714 48.8551C61.8483 45.1867 51.3898 43 40 43V49ZM3 65C3 61.5831 6.02273 57.5904 13.0029 54.2748C19.7569 51.0666 29.2984 49 40 49V43C28.6102 43 18.1517 45.1867 10.4286 48.8551C2.93157 52.4162 -3 57.9235 -3 65H3Z" fill="black" mask="url(#path-1-inside-1_1_163)"/>
<path d="M56 20C56 29.5357 48.6934 37 40 37V43C52.2934 43 62 32.5557 62 20H56ZM40 3C48.6934 3 56 10.4643 56 20H62C62 7.44431 52.2934 -3 40 -3V3ZM24 20C24 10.4643 31.3066 3 40 3V-3C27.7066 -3 18 7.44431 18 20H24ZM40 37C31.3066 37 24 29.5357 24 20H18C18 32.5557 27.7066 43 40 43V37ZM40 81C29.2984 81 19.7569 78.9334 13.0029 75.7252C6.02273 72.4096 3 68.4169 3 65H-3C-3 72.0765 2.93157 77.5838 10.4286 81.1449C18.1517 84.8133 28.6102 87 40 87V81ZM77 65C77 68.4169 73.9773 72.4096 66.9971 75.7252C60.2431 78.9334 50.7016 81 40 81V87C51.3898 87 61.8483 84.8133 69.5714 81.1449C77.0684 77.5838 83 72.0765 83 65H77ZM40 49C50.7016 49 60.2431 51.0666 66.9971 54.2748C73.9773 57.5904 77 61.5831 77 65H83C83 57.9235 77.0684 52.4162 69.5714 48.8551C61.8483 45.1867 51.3898 43 40 43V49ZM3 65C3 61.5831 6.02273 57.5904 13.0029 54.2748C19.7569 51.0666 29.2984 49 40 49V43C28.6102 43 18.1517 45.1867 10.4286 48.8551C2.93157 52.4162 -3 57.9235 -3 65H3Z" fill="black" fill-opacity="0.2" mask="url(#path-1-inside-1_1_163)"/>
</svg>
